<?xml version="1.0" encoding="UTF-8"?>
<svg version="1.1" xmlns="http://www.w3.org/2000/svg" width="32" height="32">
<path d="M0 0 C10.56 0 21.12 0 32 0 C32 10.56 32 21.12 32 32 C21.44 32 10.88 32 0 32 C0 21.44 0 10.88 0 0 Z " fill="#F7F7F7" transform="translate(0,0)"/>
<path d="M0 0 C3.8815279 0.7129337 5.49671091 1.5439246 8.0625 4.5625 C8.65659904 9.82452005 8.04467535 13.60706162 6.0625 18.5625 C6.7225 19.2225 7.3825 19.8825 8.0625 20.5625 C6.4125 20.5625 4.7625 20.5625 3.0625 20.5625 C2.7325 19.5725 2.4025 18.5825 2.0625 17.5625 C1.32 17.665625 0.5775 17.76875 -0.1875 17.875 C-2.9375 17.5625 -2.9375 17.5625 -5.25 15.5 C-7.36943033 11.81062128 -7.53717873 9.76025114 -6.9375 5.5625 C-4.97447089 2.01394737 -4.02026542 0.76983806 0 0 Z " fill="#12100F" transform="translate(20.9375,7.4375)"/>
<path d="M0 0 C0 1.32 0 2.64 0 4 C-1.134375 3.979375 -2.26875 3.95875 -3.4375 3.9375 C-6.81575674 3.58422523 -6.81575674 3.58422523 -8 5 C-8.04080783 6.99958364 -8.04254356 9.00045254 -8 11 C-7.01 9.02 -6.02 7.04 -5 5 C-4.01 5.33 -3.02 5.66 -2 6 C-2.66 8.64 -3.32 11.28 -4 14 C-2.68 14.33 -1.36 14.66 0 15 C0 15.33 0 15.66 0 16 C-1.258125 16.04125 -2.51625 16.0825 -3.8125 16.125 C-4.52019531 16.14820312 -5.22789063 16.17140625 -5.95703125 16.1953125 C-8 16 -8 16 -11 14 C-12.19754817 10.40735548 -12.33094958 7.77282526 -12 4 C-8.92690336 -0.99378204 -5.33129622 -0.35541975 0 0 Z " fill="#211D1D" transform="translate(14,7)"/>
<path d="M0 0 C1.2684375 0.12375 1.2684375 0.12375 2.5625 0.25 C4.86691554 3.70662331 4.82110135 5.19857881 4.5625 9.25 C3.5625 11.25 3.5625 11.25 1.1875 12.0625 C-1.4375 12.25 -1.4375 12.25 -3.3125 11.3125 C-5.1811221 7.88669282 -4.16640946 5.01603219 -3.4375 1.25 C-2.4375 0.25 -2.4375 0.25 0 0 Z " fill="#E8E8E7" transform="translate(21.4375,10.75)"/>
<path d="M0 0 C0.33 0.66 0.66 1.32 1 2 C0.67 2.66 0.34 3.32 0 4 C-0.06950541 5.54023996 -0.08452357 7.08334988 -0.0625 8.625 C-0.05347656 9.44226562 -0.04445313 10.25953125 -0.03515625 11.1015625 C-0.02355469 11.72804688 -0.01195312 12.35453125 0 13 C-1.65 12.67 -3.3 12.34 -5 12 C-5.125 6.25 -5.125 6.25 -4 4 C-4.66 3.67 -5.32 3.34 -6 3 C-6.66 5.31 -7.32 7.62 -8 10 C-8.66 9.67 -9.32 9.34 -10 9 C-10.125 6.125 -10.125 6.125 -10 3 C-8 1 -8 1 -4.4375 0.9375 C-3.303125 0.958125 -2.16875 0.97875 -1 1 C-0.67 0.67 -0.34 0.34 0 0 Z " fill="#DBDBDB" transform="translate(15,9)"/>
<path d="M0 0 C0.9075 0.103125 1.815 0.20625 2.75 0.3125 C2.75 0.6425 2.75 0.9725 2.75 1.3125 C1.1 1.3125 -0.55 1.3125 -2.25 1.3125 C-2.47226864 3.08163824 -2.67733873 4.85294371 -2.875 6.625 C-3.04902344 8.10419922 -3.04902344 8.10419922 -3.2265625 9.61328125 C-3.50476995 12.53907416 -3.50476995 12.53907416 -1.25 15.3125 C-1.91 15.9725 -2.57 16.6325 -3.25 17.3125 C-6.02688804 14.44883421 -7.17863748 12.81203767 -7.75 8.8125 C-7.00081611 3.56821277 -5.53533065 0.53224333 0 0 Z " fill="#1A1615" transform="translate(21.25,7.6875)"/>
<path d="M0 0 C3 1 3 1 4.0625 2.9375 C4.371875 3.618125 4.68125 4.29875 5 5 C5.66 5.66 6.32 6.32 7 7 C5.35 7 3.7 7 2 7 C1.67 6.01 1.34 5.02 1 4 C-0.32 4 -1.64 4 -3 4 C-3 3.34 -3 2.68 -3 2 C-2.01 2 -1.02 2 0 2 C0 1.34 0 0.68 0 0 Z " fill="#110E0E" transform="translate(22,21)"/>
<path d="M0 0 C2.64 0 5.28 0 8 0 C8 1.32 8 2.64 8 4 C5.03 3.505 5.03 3.505 2 3 C2 2.34 2 1.68 2 1 C1.34 0.67 0.68 0.34 0 0 Z " fill="#353231" transform="translate(6,7)"/>
<path d="M0 0 C0.99 0.33 1.98 0.66 3 1 C2.34 3.64 1.68 6.28 1 9 C0.34 8.67 -0.32 8.34 -1 8 C-1.125 2.25 -1.125 2.25 0 0 Z " fill="#060404" transform="translate(9,12)"/>
<path d="M0 0 C0.33 0 0.66 0 1 0 C1.08096803 1.45742463 1.13917774 2.91612807 1.1875 4.375 C1.22230469 5.18710937 1.25710937 5.99921875 1.29296875 6.8359375 C1.19628906 7.55007812 1.09960938 8.26421875 1 9 C0.01 9.66 -0.98 10.32 -2 11 C-2 9.35 -2 7.7 -2 6 C-1.34 6 -0.68 6 0 6 C0 4.02 0 2.04 0 0 Z " fill="#2E2A29" transform="translate(27,14)"/>
<path d="M0 0 C0.33 0 0.66 0 1 0 C1.33 2.64 1.66 5.28 2 8 C0.35 7.67 -1.3 7.34 -3 7 C-3 5.02 -3 3.04 -3 1 C-2.67 1 -2.34 1 -2 1 C-2 2.65 -2 4.3 -2 6 C-1.34 6 -0.68 6 0 6 C0 4.02 0 2.04 0 0 Z " fill="#B8B7B6" transform="translate(13,14)"/>
<path d="M0 0 C0 0.33 0 0.66 0 1 C-1.65 1 -3.3 1 -5 1 C-5.33 2.65 -5.66 4.3 -6 6 C-6.99 5.01 -7.98 4.02 -9 3 C-6.38997624 -0.48003168 -4.1689578 -0.27793052 0 0 Z " fill="#3A3736" transform="translate(24,8)"/>
</svg>
